<?xml version="1.0" encoding="UTF-8"?> <svg xmlns="http://www.w3.org/2000/svg" id="a" viewBox="0 0 187.89 170.33"> <defs> <style>.b{fill:red;}</style> </defs> <path class="b" d="M93.39,166.55c-.26-.38-.44-.58-.56-.81-2.59-4.87-6.2-8.91-10.2-12.64-6.44-6.02-13.29-11.55-20.31-16.87-7.36-5.58-14.71-11.18-21.95-16.92-6.25-4.96-12.18-10.29-17.66-16.1-5.66-6-10.39-12.64-13.73-20.21-2.28-5.18-3.8-10.57-4.66-16.15-.87-5.69-1.05-11.41-.85-17.15,.09-2.48,.22-4.95,.61-7.4,.45-2.83,1.31-5.54,2.48-8.16,2.95-6.61,6.89-12.53,12.17-17.53,3.65-3.45,7.78-6.19,12.3-8.38,2.5-1.21,4.99-2.4,7.69-3.12,2.27-.6,4.58-1,6.93-1.07,3.5-.11,7-.18,10.5-.14,2.94,.03,5.86,.37,8.68,1.26,.54,.17,1.08,.34,1.6,.56,9.23,3.86,16.78,9.8,22.43,18.09,1.96,2.88,3.35,6.01,4.04,9.43,.14,.67,.34,1.33,.57,2.18,.2-.39,.33-.62,.44-.85,.84-1.83,1.66-3.68,2.53-5.5,6.12-12.79,16.14-20.77,29.91-24.09,4.62-1.11,9.32-1.42,14.04-1.07,16.82,1.25,31.59,10.72,39.38,26.08,1.56,3.07,2.49,6.35,3.18,9.71,1.37,6.68,1.7,13.45,1.41,20.24-.21,4.93-.81,9.82-2.12,14.59-1.43,5.22-3.7,10.1-6.43,14.75-3.58,6.1-8.08,11.49-13.06,16.48-6.08,6.1-12.7,11.57-19.54,16.78-4.46,3.39-9.02,6.64-13.45,10.07-11.18,8.65-21.75,17.98-31.68,28.04-.87,.88-1.73,1.78-2.52,2.73-.61,.74-1.12,1.57-1.67,2.37-.15,.21-.29,.43-.53,.79Z"></path> </svg> 